<?xml version="1.0" encoding="UTF-8"?>
<svg width="1028px" height="664px" viewBox="0 0 1028 664" version="1.1" xmlns="http://www.w3.org/2000/svg" xmlns:xlink="http://www.w3.org/1999/xlink">
    <!-- Generator: Sketch 48.2 (47327) - http://www.bohemiancoding.com/sketch -->
    <title>design</title>
    <desc>Created with Sketch.</desc>
    <defs></defs>
    <g id="Page-2" stroke="none" stroke-width="1" fill="none" fill-rule="evenodd">
        <g id="design" fill-rule="nonzero">
            <g id="clock" transform="translate(192.000000, 135.000000)">
                <circle id="clock__background" stroke="#D8D8D8" stroke-width="14" fill="#FFFFFF" cx="80" cy="80" r="80"></circle>
                <path d="M80.9182288,88.640285 C75.3925745,88.5929986 70.9522025,84.1581214 71.0003803,78.7347095 C71.0485581,73.3112976 75.5670418,68.9530867 81.0926961,69.0003731 L123.081755,69.3596989 C128.607409,69.4069852 133.047781,73.8418624 132.999604,79.2652743 C132.951426,84.6886862 128.432942,89.0468971 122.907288,88.9996107 L80.9182288,88.640285 Z" id="clock__minute" fill="#EE6644"></path>
                <path d="M70.0001771,24.0925485 C69.9675767,18.5519407 74.3445449,14.0334337 79.7764091,14.0001807 C85.2082734,13.9669277 89.6380972,18.4315209 89.6706976,23.9721287 L89.9998152,79.9074438 C90.0324156,85.4480516 85.6554474,89.9665586 80.2235831,89.9998116 C74.7917189,90.0330646 70.3618951,85.5684714 70.3292947,80.0278636 L70.0001771,24.0925485 Z" id="clock__hour" fill="#C5C5C5"></path>
            </g>
            <g id="laptop" transform="translate(218.000000, 257.000000)">
                <g id="laptop__base" transform="translate(0.000000, 317.000000)">
                    <path d="M0,0 L600,0 L600,10 C600,15.522847 595.515418,20 589.993498,20 L10.0065021,20 C4.4800636,20 0,15.524062 0,10 L0,0 Z" id="Shape" fill="#334444"></path>
                    <path d="M241,0 L359,0 L359,3 C359,4.656854 357.654475,6 355.9944,6 L244.0056,6 C242.345653,6 241,4.653483 241,3 L241,0 Z" id="Shape" fill="#495959"></path>
                </g>
                <g id="laptop__screen" transform="translate(42.000000, 0.000000)">
                    <path d="M0,9.99970506 C0,4.47702045 4.4717251,0 9.999056,0 L505.000944,0 C510.52327,0 515,4.48121166 515,9.99970506 L515,317 L0,317 L0,9.99970506 Z" id="laptop__screen__bezel" fill="#515E5E"></path>
                    <rect id="laptop__screen__screen" fill="#FFFFFF" x="30" y="30" width="455" height="256"></rect>
                    <circle id="laptop__screen__webcam" fill="#334444" cx="263" cy="16" r="3"></circle>
                </g>
            </g>
            <g id="notifications" transform="translate(495.000000, 305.000000)">
                <g id="notification-notification__second" transform="translate(0.000000, 68.000000)">
                    <rect id="notification__background" fill="#D8D8D8" x="0" y="0" width="233" height="58" rx="5"></rect>
                    <rect id="notification__icon" fill="#EE6644" x="13.028" y="11.6" width="35" height="35" rx="5"></rect>
                    <path d="M64.7967324,24.0471671 C62.7037359,24.0471671 61.0070271,22.2841925 61.0070271,20.1094531 C61.0070271,17.9347137 62.7037359,16.1717391 64.7967324,16.1717391 L216.597929,16.1717391 C218.690926,16.1717391 220.387634,17.9347137 220.387634,20.1094531 C220.387634,22.2841925 218.690926,24.0471671 216.597929,24.0471671 L64.7967324,24.0471671 Z M64.1773397,44.1717391 C62.0843433,44.1717391 60.3876344,42.4087645 60.3876344,40.2340251 C60.3876344,38.0592857 62.0843433,36.2963111 64.1773397,36.2963111 L164.440718,36.2963111 C166.533714,36.2963111 168.230423,38.0592857 168.230423,40.2340251 C168.230423,42.4087645 166.533714,44.1717391 164.440718,44.1717391 L64.1773397,44.1717391 Z" id="notification__second__text" fill="#C5C5C5"></path>
                </g>
                <g id="notification-notification__first">
                    <rect id="notification__background" fill="#D8D8D8" x="0" y="0" width="233" height="58" rx="5"></rect>
                    <rect id="notification__icon" fill="#EE6644" x="13.028" y="11.6" width="35" height="35" rx="5"></rect>
                    <path d="M64.1773397,24.0471671 C62.0843433,24.0471671 60.3876344,22.2841925 60.3876344,20.1094531 C60.3876344,17.9347137 62.0843433,16.1717391 64.1773397,16.1717391 L99.6239885,16.1717391 C101.716985,16.1717391 103.413694,17.9347137 103.413694,20.1094531 C103.413694,22.2841925 101.716985,24.0471671 99.6239885,24.0471671 L64.1773397,24.0471671 Z M117.347313,24.0471671 C115.254317,24.0471671 113.557608,22.2841925 113.557608,20.1094531 C113.557608,17.9347137 115.254317,16.1717391 117.347313,16.1717391 L216.597929,16.1717391 C218.690926,16.1717391 220.387634,17.9347137 220.387634,20.1094531 C220.387634,22.2841925 218.690926,24.0471671 216.597929,24.0471671 L117.347313,24.0471671 Z M64.1773397,44.1717391 C62.0843433,44.1717391 60.3876344,42.4087645 60.3876344,40.2340251 C60.3876344,38.0592857 62.0843433,36.2963111 64.1773397,36.2963111 L164.440718,36.2963111 C166.533714,36.2963111 168.230423,38.0592857 168.230423,40.2340251 C168.230423,42.4087645 166.533714,44.1717391 164.440718,44.1717391 L64.1773397,44.1717391 Z" id="notification__text" fill="#C5C5C5"></path>
                </g>
            </g>
            <g id="mail" transform="translate(205.000000, 423.000000)">
                <path d="M0,5.42743167 C0,2.42465897 2.44154196,0 5.44435152,0 L127.555648,0 C130.557796,0 133,2.42951872 133,5.42743167 L133,99.5725683 C133,102.575341 130.558458,105 127.555648,105 L5.44435152,105 C2.44220417,105 0,102.570481 0,99.5725683 L0,5.42743167 Z" id="mail__background" fill="#D8D8D8"></path>
                <path d="M10.2487273,90.7979379 L63.6943263,53.2187096 C65.826658,51.7194022 68.8365754,51.7268316 70.9595598,53.2366424 L123.800696,90.8158709 C128.122867,93.8896859 125.684564,100.099237 120.155399,100.099237 L13.8686642,100.099237 C8.32326141,100.099237 5.8947771,93.859333 10.2487273,90.7979379 Z" id="mail__shadow" fill="#C5C5C5"></path>
                <path d="M119.519048,8.06542744 C121.253301,6.72696461 123.774292,7.00991241 125.14984,8.69740904 C126.525388,10.3849057 126.2346,12.8379305 124.500348,14.1763933 L69.8216072,56.3763953 C68.369258,57.4972905 66.3164385,57.5028207 64.857733,56.3897678 L9.55274687,14.1897659 C7.81090421,12.8606675 7.50616193,10.4092471 8.87208595,8.714365 C10.23801,7.01948291 12.7573526,6.72295657 14.4991953,8.05205488 L67.316825,48.3541006 L119.519048,8.06542744 Z" id="mail__lip" fill="#515E5E"></path>
            </g>
            <g id="label" transform="translate(723.000000, 233.000000)">
                <path d="M39,78 C17.4608948,78 0,60.5391052 0,39 C0,17.4608948 17.4608948,0 39,0 C60.5391052,0 78,17.4608948 78,39 C78,60.5391052 60.5391052,78 39,78 Z" id="label__background" fill="#FFFFFF"></path>
                <circle id="label__alert" fill="#EE6644" cx="39.5" cy="39.5" r="31.5"></circle>
            </g>
            <path d="M561,79.990493 L561,176.009507 C561,180.972321 565.033013,185 570.00605,185 L585.922091,185 L598.344282,198 L610.766473,185 L717.99395,185 C722.97327,185 727,180.977329 727,176.009507 L727,79.990493 C727,75.0276794 722.966987,71 717.99395,71 L570.00605,71 C565.02673,71 561,75.0226712 561,79.990493 Z" id="message" fill="#D8D8D8"></path>
            <g id="whatsapp" transform="translate(818.000000, 334.000000)">
                <path d="M112.042511,93.9699507 C110.123447,93.0017003 100.688324,88.321947 98.9290903,87.6755804 C97.1702244,87.0299564 95.8908483,86.7077013 94.6114722,88.6438309 C93.3320961,90.5803317 89.654166,94.9385724 88.5346198,96.2298205 C87.4154419,97.5206973 86.2958958,97.6829387 84.3768316,96.7139457 C82.4577675,95.7456953 76.2741162,93.7030136 68.944035,87.1112627 C63.2391371,81.981169 59.3873828,75.6459599 58.2682049,73.7090878 C57.1486587,71.7722157 58.1485165,70.7252578 59.1093376,69.76072 C59.9729349,68.893824 61.02877,67.5008502 61.9881179,66.371101 C62.9478342,65.241723 63.267494,64.4342288 63.9071821,63.1437233 C64.5468702,61.8521039 64.2272103,60.7227259 63.7469839,59.7544755 C63.267494,58.7862251 59.4293657,49.262992 57.8303297,45.3888765 C56.2725402,41.616858 54.6904447,42.127714 53.5123433,42.0679409 C52.3942701,42.0118804 51.1134209,42 49.8344131,42 C48.555037,42 46.4757746,42.4841252 44.7165404,44.4206261 C42.9576745,46.3574982 38,51.0383653 38,60.5604846 C38,70.0837176 44.8763704,79.2828392 45.8360866,80.5740872 C46.7958028,81.8657066 59.3682326,101.406693 78.6200073,109.786812 C83.198362,111.780487 86.773176,112.970752 89.5602567,113.862151 C94.1573931,115.334946 98.3409603,115.12704 101.647672,114.628806 C105.334809,114.07377 113.001859,109.949053 114.601263,105.430056 C116.200299,100.909945 116.200299,97.0365721 115.720441,96.2298205 C115.240951,95.4226977 113.961575,94.9385724 112.042511,93.9699507" id="whatsapp__phone" fill="#EE6644"></path>
                <path d="M77.3220698,140.696727 L77.2963334,140.696727 C65.8601807,140.692308 54.6435226,137.614589 44.8585437,131.798337 L42.5312379,130.414707 L18.4103493,136.752813 L24.8484933,113.195391 L23.3333548,110.77984 C16.9536691,100.616038 13.5840391,88.8686308 13.5891864,76.8059756 C13.6031576,41.608316 42.1933557,12.9723077 77.3474386,12.9723077 C94.3702283,12.9782002 110.371651,19.6271339 122.404888,31.6942085 C134.43739,43.7605465 141.060101,59.7998931 141.053483,76.8575349 C141.039144,112.058141 112.449313,140.696727 77.3220698,140.696727 Z M77.3213347,0 C35.0573877,0 0.659587145,34.453365 0.642674654,76.801188 C0.637159712,90.3384378 4.16782602,103.551233 10.8780406,115.199572 L0,155 L40.6480689,144.319501 C51.8478144,150.438479 64.4575471,153.663879 77.2908187,153.66793 C119.581973,153.66793 153.982714,119.21125 153.999994,76.8626908 C154.007715,56.339899 146.039358,37.0427443 131.562634,22.5251322 C117.085909,8.00715177 97.8336126,0.00847044847 77.3213347,0 Z" id="whatsapp__bubble" fill="#D8D8D8"></path>
            </g>
        </g>
    </g>
</svg>