<svg xmlns="http://www.w3.org/2000/svg" width="1028" height="664" viewBox="0 0 1028 664">
  <g fill="none" fill-rule="evenodd">
    <g stroke-linecap="round" stroke-linejoin="round" transform="translate(206 135)">
      <circle cx="80" cy="80" r="80" fill="#FFF" stroke="#D8D8D8" stroke-width="14"/>
      <path stroke="#E64" stroke-width="20" d="M80,79 L121.966135,79.3658999"/>
      <path stroke="#C5C5C5" stroke-width="20" d="M80,24 L80.3346243,79.7550114"/>
    </g>
    <g transform="translate(232 257)">
      <path fill="#344" d="M0,317 L600,317 L600,327 C600,332.522847 595.515418,337 589.993498,337 L10.0065021,337 C4.4800636,337 0,332.524062 0,327 L0,317 Z"/>
      <path fill="#495959" d="M241,317 L359,317 L359,320 C359,321.656854 357.654475,323 355.9944,323 L244.0056,323 C242.345653,323 241,321.653483 241,320 L241,317 Z"/>
      <path fill="#515E5E" d="M42,9.99970506 C42,4.47702045 46.4717251,0 51.999056,0 L547.000944,0 C552.52327,0 557,4.48121166 557,9.99970506 L557,317 L42,317 L42,9.99970506 Z"/>
      <rect width="455" height="256" x="72" y="30" fill="#FFF"/>
      <circle cx="305" cy="16" r="3" fill="#344"/>
    </g>
    <g transform="translate(509 305)">
      <rect width="233" height="58" fill="#D8D8D8" rx="5"/>
      <rect width="35.075" height="34.8" x="13.028" y="11.6" fill="#E64" rx="5"/>
      <path stroke="#C5C5C5" stroke-linecap="round" stroke-linejoin="round" stroke-width="7.5" d="M64.1376344 19.9217391L99.2129032 19.9217391M116.750538 19.9217391L214.96129 19.9217391M64.1376344 39.0869565L163.350538 39.0869565"/>
    </g>
    <g transform="translate(509 373)">
      <rect width="233" height="58" fill="#D8D8D8" rx="5"/>
      <rect width="35.075" height="34.8" x="13.028" y="11.6" fill="#E64" rx="5"/>
      <path stroke="#C5C5C5" stroke-linecap="round" stroke-linejoin="round" stroke-width="7.5" d="M64.7505376 19.9217391L214.96129 19.9217391M64.1376344 39.0869565L163.350538 39.0869565"/>
    </g>
    <g transform="translate(219 423)">
      <path fill="#D8D8D8" fill-rule="nonzero" d="M0,5.42743167 C0,2.42465897 2.44154196,0 5.44435152,0 L127.555648,0 C130.557796,0 133,2.42951872 133,5.42743167 L133,99.5725683 C133,102.575341 130.558458,105 127.555648,105 L5.44435152,105 C2.44220417,105 0,102.570481 0,99.5725683 L0,5.42743167 Z"/>
      <path fill="#C5C5C5" fill-rule="nonzero" d="M10.2445024,90.2255812 L63.5891474,53.2021525 C65.7174513,51.72502 68.7216832,51.7323395 70.8406575,53.2198201 L123.581981,90.2432489 C127.895988,93.271602 125.462291,99.389313 119.94357,99.389313 L13.8576016,99.389313 C8.32267356,99.389313 5.89877644,93.241698 10.2445024,90.2255812 Z"/>
      <polyline stroke="#515E5E" stroke-linecap="round" stroke-linejoin="round" stroke-width="8" points="12.018 11.221 67.213 54.504 121.783 11.221"/>
    </g>
    <g transform="translate(42 257)">
      <ellipse cx="64.4" cy="18.045" stroke="#C5C5C5" stroke-width="6.4" rx="14.8" ry="14.845"/>
      <ellipse cx="64.4" cy="143.955" fill="#E64" rx="18" ry="18.045"/>
      <path fill="#D8D8D8" d="M18.3961391,61.1507804 L18.3961391,88.6251112 C18.3961391,97.2814073 15.3926878,105.561343 9.76121668,112.335835 L2.25258846,121.744853 C1.87715705,122.121213 0,124.755738 0,126.073001 C0,136.987461 29.1855776,147.715203 64.0110555,147.562751 C98.8365334,147.410298 127.834395,136.79928 127.834395,125.88482 C127.834395,124.755738 125.957238,121.933033 125.581807,121.556672 L118.073179,112.147655 C112.629423,105.561343 109.625972,97.0932269 109.625972,88.6251112 L109.625972,61.1507804 C109.625972,43.8381884 91.7326078,16.8415842 63.9171977,16.8415842 C36.1017875,16.8415842 18.3961391,43.8381884 18.3961391,61.1507804 Z"/>
      <path stroke="#C5C5C5" stroke-linecap="round" stroke-linejoin="round" stroke-width="8" d="M19.5107212,113.745418 C19.5107212,113.745418 39.188531,125.666079 63.9062055,125.666079 C88.62388,125.666079 107.811887,113.745418 107.811887,113.745418"/>
    </g>
    <circle cx="35" cy="35" r="35" fill="#E64" stroke="#FFF" stroke-width="8" transform="translate(741 237)"/>
    <path fill="#D8D8D8" fill-rule="nonzero" d="M575,79.990493 L575,176.009507 C575,180.972321 579.033013,185 584.00605,185 L599.922091,185 L612.344282,198 L624.766473,185 L731.99395,185 C736.97327,185 741,180.977329 741,176.009507 L741,79.990493 C741,75.0276794 736.966987,71 731.99395,71 L584.00605,71 C579.02673,71 575,75.0226712 575,79.990493 Z"/>
    <g transform="translate(832 334)">
      <path fill="#E64" d="M112.042511,93.9699508 C110.123447,93.0017004 100.688324,88.3219471 98.9290901,87.6755805 C97.1702242,87.0299565 95.8908481,86.7077014 94.611472,88.643831 C93.3320959,90.5803318 89.6541658,94.9385725 88.5346196,96.2298206 C87.4154417,97.5206974 86.2958956,97.6829388 84.3768314,96.7139458 C82.4577673,95.7456954 76.2741161,93.7030137 68.9440349,87.1112628 C63.239137,81.9811691 59.3873827,75.6459599 58.2682048,73.7090878 C57.1486586,71.7722157 58.1485164,70.7252578 59.1093375,69.76072 C59.9729348,68.893824 61.0287699,67.5008502 61.9881178,66.371101 C62.9478341,65.241723 63.2674939,64.4342288 63.907182,63.1437233 C64.5468701,61.8521039 64.2272102,60.7227259 63.7469838,59.7544755 C63.2674939,58.7862251 59.4293656,49.262992 57.8303296,45.3888765 C56.2725401,41.616858 54.6904446,42.127714 53.5123432,42.0679409 C52.3942701,42.0118804 51.1134209,42 49.8344131,42 C48.555037,42 46.4757746,42.4841252 44.7165404,44.4206261 C42.9576745,46.3574982 38,51.0383653 38,60.5604846 C38,70.0837176 44.8763704,79.2828393 45.8360866,80.5740873 C46.7958028,81.8657067 59.3682325,101.406693 78.6200072,109.786812 C83.1983618,111.780487 86.7731758,112.970752 89.5602565,113.862151 C94.1573929,115.334946 98.3409601,115.12704 101.647672,114.628806 C105.334809,114.07377 113.001859,109.949053 114.601263,105.430056 C116.200299,100.909945 116.200299,97.0365722 115.720441,96.2298206 C115.240951,95.4226978 113.961575,94.9385725 112.042511,93.9699508"/>
      <path fill="#D8D8D8" d="M77.3220698,140.696727 L77.2963334,140.696727 C65.8601807,140.692308 54.6435226,137.614589 44.8585437,131.798337 L42.5312379,130.414707 L18.4103493,136.752813 L24.8484933,113.195391 L23.3333548,110.77984 C16.9536691,100.616038 13.5840391,88.8686308 13.5891864,76.8059756 C13.6031576,41.608316 42.1933557,12.9723077 77.3474386,12.9723077 C94.3702283,12.9782002 110.371651,19.6271339 122.404888,31.6942085 C134.43739,43.7605465 141.060101,59.7998931 141.053483,76.8575349 C141.039144,112.058141 112.449313,140.696727 77.3220698,140.696727 M77.3213345,0 C35.0573876,0 0.659587143,34.453365 0.642674652,76.801188 C0.63715971,90.3384378 4.16782601,103.551233 10.8780406,115.199572 L0,155 L40.6480688,144.319501 C51.8478143,150.438479 64.4575469,153.663879 77.2908185,153.66793 C119.581973,153.66793 153.982714,119.21125 153.999994,76.8626908 C154.007715,56.339899 146.039358,37.0427443 131.562634,22.5251322 C117.085909,8.00715177 97.8336123,0.00847044847 77.3213345,0 Z"/>
    </g>
  </g>
</svg>
