<svg xmlns="http://www.w3.org/2000/svg" width="250" height="250" viewBox="0 0 250 250">
  <g fill="none" fill-rule="evenodd" transform="translate(61 44)">
    <ellipse cx="64.4" cy="18.045" stroke="#C5C5C5" stroke-width="6.4" rx="14.8" ry="14.845"/>
    <ellipse cx="64.4" cy="143.955" fill="#C5C5C5" rx="18" ry="18.045"/>
    <path fill="#D8D8D8" d="M18.3961391,61.1507804 L18.3961391,88.6251112 C18.3961391,97.2814073 15.3926878,105.561343 9.76121668,112.335835 L2.25258846,121.744853 C1.87715705,122.121213 0,124.755738 0,126.073001 C0,136.987461 29.1855776,147.715203 64.0110555,147.562751 C98.8365334,147.410298 127.834395,136.79928 127.834395,125.88482 C127.834395,124.755738 125.957238,121.933033 125.581807,121.556672 L118.073179,112.147655 C112.629423,105.561343 109.625972,97.0932269 109.625972,88.6251112 L109.625972,61.1507804 C109.625972,43.8381884 91.7326078,16.8415842 63.9171977,16.8415842 C36.1017875,16.8415842 18.3961391,43.8381884 18.3961391,61.1507804 Z"/>
    <ellipse cx="97.6" cy="32.079" fill="#E64" rx="15.2" ry="15.238"/>
    <path stroke="#C5C5C5" stroke-linecap="round" stroke-linejoin="round" stroke-width="8" d="M19.5107212,113.745418 C19.5107212,113.745418 39.188531,125.666079 63.9062055,125.666079 C88.62388,125.666079 107.811887,113.745418 107.811887,113.745418"/>
  </g>
</svg>
