<svg xmlns="http://www.w3.org/2000/svg" width="250" height="250" viewBox="0 0 250 250">
  <g fill="none" fill-rule="evenodd" stroke-linecap="round" stroke-linejoin="round">
    <rect width="30" height="30" x="30" y="37" fill="#FFF" stroke="#D8D8D8" stroke-width="4.32" rx="1.44"/>
    <rect width="30" height="30" x="30" y="126" fill="#FFF" stroke="#D8D8D8" stroke-width="4.32" rx="1.44"/>
    <rect width="30" height="30" x="30" y="82" fill="#FFF" stroke="#D8D8D8" stroke-width="4.32" rx="1.44"/>
    <rect width="30" height="30" x="30" y="171" fill="#FFF" stroke="#D8D8D8" stroke-width="4.32" rx="1.44"/>
    <polyline stroke="#E64" stroke-width="7.2" points="36 50.782 45.302 59 64 43"/>
    <path stroke="#D8D8D8" stroke-width="4.32" d="M91.7191011 45.5L218.28907 45.5M91.7185845 134L194.402299 134M91.71875 91.5L136.304429 91.5M91.7074468 180L146.404255 180M149.72 91.5L220.28 91.5M161.6 180L220.28 180M91.7222222 57.5L181.277778 57.5M91.7219817 146L169.401515 146M180.732426 146L213.392857 146M91.7291667 104.5L160.270833 104.5M91.725 193L192.4 193"/>
  </g>
</svg>
